# Blender v2.81 (sub 16) OBJ File: 'models.blend'
# www.blender.org
o Axle.001
v 0.022190 -0.030994 0.030994
v -0.006677 -0.059861 0.059861
v 0.022190 0.030994 0.030994
v -0.006677 0.059861 0.059861
v 0.022190 -0.030994 -0.030994
v -0.006677 -0.059861 -0.059861
v 0.022190 0.030994 -0.030994
v -0.006677 0.059861 -0.059861
v 0.512669 -0.030994 0.030994
v 0.541537 -0.059861 0.059861
v 0.512669 0.030994 0.030994
v 0.541537 0.059861 0.059861
v 0.512669 -0.030994 -0.030994
v 0.541537 -0.059861 -0.059861
v 0.512669 0.030994 -0.030994
v 0.541537 0.059861 -0.059861
v 0.007757 -0.020427 0.020427
v 0.007757 0.020427 0.020427
v 0.007757 0.020427 -0.020427
v 0.007757 -0.020427 -0.020427
v 0.032757 -0.020427 -0.045427
v 0.032757 0.020427 -0.045427
v 0.502103 0.020427 -0.045427
v 0.502103 -0.020427 -0.045427
v 0.527103 -0.020427 -0.020427
v 0.527103 0.020427 -0.020427
v 0.527103 0.020427 0.020427
v 0.527103 -0.020427 0.020427
v 0.502103 -0.020427 0.045427
v 0.502103 0.020427 0.045427
v 0.032757 0.020427 0.045427
v 0.032757 -0.020427 0.045427
v 0.032757 -0.045427 -0.020427
v 0.502103 -0.045427 -0.020427
v 0.502103 -0.045427 0.020427
v 0.032757 -0.045427 0.020427
v 0.502103 0.045427 -0.020427
v 0.032757 0.045427 -0.020427
v 0.032757 0.045427 0.020427
v 0.502103 0.045427 0.020427
vn 0.5907 0.0000 -0.8069
vn -0.9391 0.0000 -0.3437
vn 0.5907 -0.8069 0.0000
vn -0.9391 -0.3437 0.0000
vn 0.5907 0.0000 0.8069
vn -0.9391 0.0000 0.3437
vn 0.5907 0.8069 0.0000
vn -0.9391 0.3437 0.0000
vn 0.8069 0.0000 0.5907
vn 0.3437 0.0000 -0.9391
vn 0.0000 -0.8069 0.5907
vn 0.0000 -0.3437 -0.9391
vn -0.8069 0.0000 0.5907
vn -0.3437 0.0000 -0.9391
vn 0.0000 0.8069 0.5907
vn 0.0000 0.3437 -0.9391
vn -0.5907 0.0000 0.8069
vn 0.9391 0.0000 0.3437
vn -0.5907 -0.8069 0.0000
vn 0.9391 -0.3437 0.0000
vn -0.5907 0.0000 -0.8069
vn 0.9391 0.0000 -0.3437
vn -0.5907 0.8069 0.0000
vn 0.9391 0.3437 0.0000
vn -0.8069 0.0000 -0.5907
vn -0.3437 0.0000 0.9391
vn 0.0000 -0.8069 -0.5907
vn 0.0000 -0.3437 0.9391
vn 0.8069 0.0000 -0.5907
vn 0.3437 0.0000 0.9391
vn 0.0000 0.8069 -0.5907
vn 0.0000 0.3437 0.9391
vn 0.0000 0.5907 0.8069
vn 0.0000 -0.9391 0.3437
vn -0.8069 0.5907 0.0000
vn -0.3437 -0.9391 0.0000
vn 0.0000 0.5907 -0.8069
vn 0.0000 -0.9391 -0.3437
vn 0.8069 0.5907 0.0000
vn 0.3437 -0.9391 0.0000
vn 0.0000 -0.5907 0.8069
vn 0.0000 0.9391 0.3437
vn 0.8069 -0.5907 0.0000
vn 0.3437 0.9391 0.0000
vn 0.0000 -0.5907 -0.8069
vn 0.0000 0.9391 -0.3437
vn -0.8069 -0.5907 0.0000
vn -0.3437 0.9391 0.0000
s off
f 17//1 18//1 3//1 1//1
f 18//2 17//2 2//2 4//2
f 18//3 19//3 7//3 3//3
f 19//4 18//4 4//4 8//4
f 19//5 20//5 5//5 7//5
f 20//6 19//6 8//6 6//6
f 20//7 17//7 1//7 5//7
f 17//8 20//8 6//8 2//8
f 21//9 22//9 7//9 5//9
f 22//10 21//10 6//10 8//10
f 22//11 23//11 15//11 7//11
f 23//12 22//12 8//12 16//12
f 23//13 24//13 13//13 15//13
f 24//14 23//14 16//14 14//14
f 24//15 21//15 5//15 13//15
f 21//16 24//16 14//16 6//16
f 25//17 26//17 15//17 13//17
f 26//18 25//18 14//18 16//18
f 26//19 27//19 11//19 15//19
f 27//20 26//20 16//20 12//20
f 27//21 28//21 9//21 11//21
f 28//22 27//22 12//22 10//22
f 28//23 25//23 13//23 9//23
f 25//24 28//24 10//24 14//24
f 29//25 30//25 11//25 9//25
f 30//26 29//26 10//26 12//26
f 30//27 31//27 3//27 11//27
f 31//28 30//28 12//28 4//28
f 31//29 32//29 1//29 3//29
f 32//30 31//30 4//30 2//30
f 32//31 29//31 9//31 1//31
f 29//32 32//32 2//32 10//32
f 33//33 34//33 13//33 5//33
f 34//34 33//34 6//34 14//34
f 34//35 35//35 9//35 13//35
f 35//36 34//36 14//36 10//36
f 35//37 36//37 1//37 9//37
f 36//38 35//38 10//38 2//38
f 36//39 33//39 5//39 1//39
f 33//40 36//40 2//40 6//40
f 37//41 38//41 7//41 15//41
f 38//42 37//42 16//42 8//42
f 38//43 39//43 3//43 7//43
f 39//44 38//44 8//44 4//44
f 39//45 40//45 11//45 3//45
f 40//46 39//46 4//46 12//46
f 40//47 37//47 15//47 11//47
f 37//48 40//48 12//48 16//48
